<svg t="1645069152655" class="icon" viewBox="0 0 1024 1024" version="1.1" xmlns="http://www.w3.org/2000/svg" p-id="1142" width="16" height="16"><path d="M351.442839 977.075202a37.934356 37.934356 0 1 1 26.326443-71.126917 376.384678 376.384678 0 0 0 130.45625 23.25376 371.756687 371.756687 0 0 0 233.7515-81.407128 37.934356 37.934356 0 1 1 47.304142 59.329333 453.050011 453.050011 0 0 1-437.876269 69.950952z m-248.735571-223.47129A453.087945 453.087945 0 0 1 271.363414 167.024969a37.934356 37.934356 0 1 1 39.906942 64.488404 376.726087 376.726087 0 0 0-140.357116 488.328962 37.70675 37.70675 0 0 1-33.951248 54.587538 38.389568 38.389568 0 0 1-34.254724-20.825961z m808.343188-95.36697a37.934356 37.934356 0 0 1-31.219975-43.62451 389.737571 389.737571 0 0 0 5.045269-62.022671 374.905238 374.905238 0 0 0-290.539231-366.749352 37.934356 37.934356 0 1 1 17.260132-73.858191 450.622212 450.622212 0 0 1 348.996073 440.607543 470.386012 470.386012 0 0 1-5.993628 74.237534 37.934356 37.934356 0 0 1-37.403275 31.78899c-2.08639 0.037934-4.058976-0.189672-6.145365-0.341409z" fill="#231815" p-id="1143"></path><path d="M835.940431 947.258798a132.011558 132.011558 0 1 1 0.417278 0z m-56.029043-132.390901a56.180781 56.180781 0 0 0 56.029043 56.598058h0.417278a56.294584 56.294584 0 1 0-56.408387-56.598058z m-590.827592 132.390901a132.011558 132.011558 0 1 1 0.379344 0z m-56.218715-132.390901a56.332518 56.332518 0 0 0 56.218715 56.598058h0.379344a56.294584 56.294584 0 1 0-56.598059-56.598058z m375.09491-531.687931a132.20123 132.20123 0 1 1 0.417278 0z m-56.029043-132.239164a56.25665 56.25665 0 0 0 56.029043 56.446321h0.417278a56.294584 56.294584 0 1 0-56.408387-56.446321z" fill="#38BDFE" p-id="1144"></path></svg>